<svg id="eV329Dn1IbJ1" xmlns="http://www.w3.org/2000/svg" xmlns:xlink="http://www.w3.org/1999/xlink" viewBox="0 0 96 96" shape-rendering="geometricPrecision" text-rendering="geometricPrecision" project-id="f76848352e764c59bffb95334db1ae05" export-id="eae745f804174ca0a42f7623cb49e3b9" cached="false" fill="#ffffff"><g transform="translate(.000052-5.646268)"><g transform="translate(-4.500551 12)"><path d="M72.556,42.187C73.501,40.271,74,38.166,74,36c0-7.72-6.28-14-14-14-4.601,0-8.895,2.281-11.496,6.021-.168-.005-.334-.021-.503-.021-7.664,0-14.219,5.012-16.311,12.184-.577-.105-1.182-.184-1.689-.184-6.066,0-11,4.935-11,11s4.934,11,11,11h36c6.065,0,11-4.935,11-11c0-3.608-1.754-6.806-4.445-8.813ZM60,26c5.514,0,10,4.486,10,10c0,1.548-.36,3.05-1.036,4.417-.945-.265-1.936-.417-2.963-.417-.508,0-1.112.079-1.69.184-1.608-5.511-5.854-9.735-11.21-11.401C54.939,27.03,57.397,26,60,26Zm6.001,32h-36c-3.859,0-7-3.141-7-7s3.141-7,7-7c.277,0,.723.068,1.193.162v1.838c0,1.104.896,2,2,2s2-.896,2-2v-3.219C36.267,36.528,41.63,32,48.001,32c6.372,0,11.736,4.53,12.807,10.786v3.214c0,1.104.896,2,2,2s2-.896,2-2v-1.837c.471-.094.919-.163,1.193-.163c3.859,0,7,3.141,7,7s-3.141,7-7,7Z"/><path d="M60,18c1.104,0,2-.896,2-2v-4c0-1.104-.896-2-2-2-1.105,0-2,.896-2,2v4c0,1.104.895,2,2,2Z"/><path d="M84,34h-4c-1.105,0-2,.896-2,2s.895,2,2,2h4c1.104,0,2-.896,2-2s-.896-2-2-2Z"/><path d="M74.143,23.857c.512,0,1.023-.195,1.414-.586l2.828-2.828c.781-.781.781-2.047,0-2.828s-2.047-.781-2.828,0l-2.828,2.828c-.781.781-.781,2.047,0,2.828.39.391.902.586,1.414.586Z"/><path d="M44.443,23.271c.391.391.902.586,1.414.586s1.023-.195,1.414-.586c.781-.781.781-2.047,0-2.828l-2.828-2.828c-.781-.781-2.047-.781-2.828,0s-.781,2.047,0,2.828l2.828,2.828Z"/></g></g></svg>
